<?xml version="1.0" encoding="utf-8"?>
<!-- Generator: Adobe Illustrator 26.0.3, SVG Export Plug-In . SVG Version: 6.00 Build 0)  -->
<svg version="1.1" id="Layer_1" xmlns="http://www.w3.org/2000/svg" xmlns:xlink="http://www.w3.org/1999/xlink" x="0px" y="0px"
	 viewBox="0 0 220.5845 233.6163" enable-background="new 0 0 220.5845 233.6163" xml:space="preserve">
<g>
	<path d="M154.6024,101.1261c-0.2246,2.4707,0.7129,4.9023,2.5391,6.5869c1.4844,1.3818,3.4277,2.1289,5.4297,2.1289
		c0.4395,0,0.8887-0.0342,1.3281-0.1074l47.0996-7.9492c4.3555-0.7373,7.2949-4.8633,6.5625-9.2236
		c-0.7324-4.3506-4.8145-7.2412-9.2188-6.5576l-37.2559,6.2891c0.0549-4.7369-0.3021-8.9587-0.8539-12.9327l-15.5835,3.8123
		C155.1542,87.8607,155.2751,93.6529,154.6024,101.1261z"/>
	<path d="M96.06,97.2021c-0.6274,0-1.203-0.2612-1.814-0.3748l-4.0314,19.9133c-0.1123,0.556-0.0092,1.0876-0.0012,1.6327
		c-0.08,0.567-0.3351,1.0718-0.3351,1.6608v101.2189c0,6.8298,5.5371,12.3633,12.3633,12.3633
		c6.828,0,12.3651-5.5334,12.3651-12.3633v-91.6888l4.6344,0.9387v90.7501c0,6.8298,5.5371,12.3633,12.3633,12.3633
		c6.8286,0,12.3657-5.5334,12.3657-12.3633v-97.4298l8.1018-40.0201L98.5081,96.9073C97.7067,97.1027,96.8833,97.2021,96.06,97.2021
		z"/>
	<path d="M151.464,0.4517c-12.179-2.4652-24.0515,5.4083-26.5173,17.5885c-2.4658,12.1796,5.4095,24.0515,17.5879,26.5167
		c12.1808,2.4664,24.0515-5.4083,26.5173-17.5879S163.6448,2.9181,151.464,0.4517z"/>
	<path d="M7.1122,48.8116c0,19.5752,15.918,35.498,35.498,35.498s35.498-15.9229,35.498-35.498
		c0-2.9694-0.4742-5.8093-1.1639-8.5675l-34.3335,8.5663L58.585,17.2821c-4.8236-2.4561-10.1996-3.9734-15.9747-3.9734
		C23.0302,13.3087,7.1122,29.2364,7.1122,48.8116z"/>
	<path d="M36.5428,90.9814c23.2904,3.3514,44.8883-12.8125,48.2391-36.1029c0.8118-5.639,0.47-11.1761-0.8313-16.3824
		l-4.0985,1.0223c0.7489,2.9919,1.264,6.0724,1.264,9.2932c0,21.2256-17.2754,38.4961-38.5059,38.4961
		S4.1044,70.0372,4.1044,48.8116c0-21.2305,17.2754-38.501,38.5059-38.501c6.2616,0,12.0923,1.6449,17.3242,4.3079l1.9318-3.8123
		C57.83,8.7622,53.4049,7.3193,48.679,6.6394C25.3886,3.288,3.7913,19.4519,0.4398,42.7423S13.2523,87.63,36.5428,90.9814z"/>
	<path d="M190.5027,65.1599l30.0818,18.7384l-5.5225-35.0299C204.9619,50.4846,195.9513,56.4563,190.5027,65.1599z"/>
	<path d="M214.5957,45.91l-0.6464-4.0991c-12.1472,1.9196-22.9858,9.0588-29.527,19.5612l3.5437,2.2076
		C193.87,54.1382,203.6424,47.663,214.5957,45.91z"/>
	<path d="M90.2555,92.4072c1.5289,1.6132,3.6365,2.4951,5.8044,2.4951c0.6329,0,1.2708-0.0751,1.9012-0.2295l76.9543-18.8263
		c4.2908-1.0498,6.9189-5.3796,5.8691-9.6716c-1.0486-4.2902-5.3723-6.9238-9.6716-5.8691l-62.9974,15.4108
		c1.8225-5.1221,3.3447-8.7671,4.5782-11.4172l2.2009,0.7025c-0.8691,1.8518-1.9147,4.2841-3.1268,7.453l51.3385-12.558
		c-0.3162-0.423-0.542-0.9662-0.8771-1.3635c-4.3451-5.1483-8.9612-6.662-11.3031-7.1301c-0.061-0.014-0.1044-0.058-0.166-0.0702
		l-37.8662-7.666c-0.1288-0.0262-0.2496,0.0195-0.3778,0c-0.1349-0.0159-0.2704,0.0085-0.4065-0.0006
		c-1.1298-0.1093-2.1997,0.0336-3.2214,0.3876c-0.365,0.1166-0.7825,0.2808-1.2518,0.52c-0.2753,0.1538-0.5438,0.2881-0.7983,0.4742
		c-2.1881,1.452-5.307,4.9579-9.472,14.3573c-2.5818,5.8282-5.556,13.8806-8.9655,25.1874
		C87.5718,87.3419,88.2798,90.3241,90.2555,92.4072z"/>
</g>
</svg>
