<?xml version="1.0" encoding="UTF-8" standalone="no"?> <svg width="25" height="24" viewBox="0 0 25 24" fill="none" xmlns="http://www.w3.org/2000/svg">
<g clip-path="url(#clip0_1316_14781)">
<path d="M12.251 6V18" stroke="black" stroke-width="1.5" stroke-linecap="round" stroke-linejoin="round"/>
<path d="M7.75098 13.5L12.251 18L16.751 13.5" stroke="black" stroke-width="1.5" stroke-linecap="round" stroke-linejoin="round"/>
<path d="M6.24998 23.25H2.50098C2.10315 23.25 1.72162 23.092 1.44032 22.8107C1.15901 22.5294 1.00098 22.1478 1.00098 21.75V2.25C1.00098 1.85218 1.15901 1.47064 1.44032 1.18934C1.72162 0.908035 2.10315 0.75 2.50098 0.75H6.24998" stroke="black" stroke-width="1.5" stroke-linecap="round" stroke-linejoin="round"/>
<path d="M18.25 0.75H22C22.3978 0.75 22.7794 0.908035 23.0607 1.18934C23.342 1.47064 23.5 1.85218 23.5 2.25V21.75C23.5 22.1478 23.342 22.5294 23.0607 22.8107C22.7794 23.092 22.3978 23.25 22 23.25H18.25" stroke="black" stroke-width="1.5" stroke-linecap="round" stroke-linejoin="round"/>
</g>
<defs>
<clipPath id="clip0_1316_14781">
<rect width="24" height="24" fill="white" transform="translate(0.25)"/>
</clipPath>
</defs>
</svg>
