<?xml version="1.0" encoding="UTF-8" standalone="no"?> <svg id="lyne" xmlns="http://www.w3.org/2000/svg" viewBox="0 0 64 64"><title>envelope</title><path d="M61.89,44.81l-8.24-3.6V15.42a1,1,0,0,0-1-1H9.48a1,1,0,0,0-1,1V45.07a1,1,0,0,0,1,1H38.63l6.16,15.32a1,1,0,0,0,1.88,0L50.13,51a1,1,0,0,0,1.18.28l10.57-4.6A1,1,0,0,0,61.89,44.81ZM49,16.42,31.09,29,14.31,16.42ZM10.48,44.07V16.42H11L30.47,31a1,1,0,0,0,1.17,0L51.65,17V40.34L35.29,33.2A1,1,0,0,0,34,34.49l3.85,9.58Zm40.66,5.07c.4.39-8.58-8.69-8.6-8.71a1,1,0,0,0-1.42,1.4l7.44,7.53-2.93,8.76L36.74,36,59,45.72Z"/></svg>