<?xml version="1.0" encoding="UTF-8"?>
<svg id="Layer_1" data-name="Layer 1" xmlns="http://www.w3.org/2000/svg" viewBox="0 0 48 48">
  <defs>
    <style>
      .cls-1 {
        fill: #000;
        stroke-width: 0px;
      }
    </style>
  </defs>
  <path class="cls-1" d="M39,22h-14v-1c0-.552-.447-1-1-1s-1,.448-1,1v1h-14c-1.103,0-2,.897-2,2v2c0,.552.447,1,1,1s1-.448,1-1v-2h14v2c0,.552.447,1,1,1s1-.448,1-1v-2h14v2c0,.552.447,1,1,1s1-.448,1-1v-2c0-1.103-.897-2-2-2Z"/>
  <path class="cls-1" d="M26.106,9.388c1.133-.706,1.894-1.954,1.894-3.388,0-2.209-1.791-4-4-4s-4,1.791-4,4c0,1.434.761,2.681,1.894,3.388-2.273.854-3.894,3.041-3.894,5.612v1c0,1.105.895,2,2,2h8c1.105,0,2-.895,2-2v-1c0-2.571-1.621-4.759-3.894-5.612Z"/>
  <path class="cls-1" d="M10.106,36.388c1.133-.706,1.894-1.954,1.894-3.388,0-2.209-1.791-4-4-4s-4,1.791-4,4c0,1.434.761,2.681,1.894,3.388-2.273.854-3.894,3.041-3.894,5.612v1c0,1.105.895,2,2,2h8c1.105,0,2-.895,2-2v-1c0-2.571-1.621-4.759-3.894-5.612Z"/>
  <path class="cls-1" d="M26.106,36.388c1.133-.706,1.894-1.954,1.894-3.388,0-2.209-1.791-4-4-4s-4,1.791-4,4c0,1.434.761,2.681,1.894,3.388-2.273.854-3.894,3.041-3.894,5.612v1c0,1.105.895,2,2,2h8c1.105,0,2-.895,2-2v-1c0-2.571-1.621-4.759-3.894-5.612Z"/>
  <path class="cls-1" d="M42.106,36.388c1.133-.706,1.894-1.954,1.894-3.388,0-2.209-1.791-4-4-4s-4,1.791-4,4c0,1.434.761,2.681,1.894,3.388-2.273.854-3.894,3.041-3.894,5.612v1c0,1.105.895,2,2,2h8c1.105,0,2-.895,2-2v-1c0-2.571-1.621-4.759-3.894-5.612Z"/>
</svg>